# xmcd
#
# Track frame offsets:
#	150
#	18366
#	33297
#	51306
#	66869
#	82264
#	103270
#	121126
#	137105
#	154293
#	168324
#
# Disc length: 2456 seconds
#
# Revision: 1
# Processed by: cddbd v1.5.2PL0 Copyright (c) Steve Scherf et al.
# Submitted via: EZCDAudioConverter 6.0.3.1
#
DISCID=9609960b
DTITLE=Sammy Kershaw - The Blues Got Me
DYEAR=2016
DGENRE=Country
TTITLE0=The Blues Got Me
TTITLE1=That Train
TTITLE2=Ain't My Cross To Bear
TTITLE3=Where'd The Money Go
TTITLE4=Big Legged Woman
TTITLE5=I'm Gone
TTITLE6=No Money Down
TTITLE7=I'm Your Huckleberry
TTITLE8=I'm Goin' Crazy
TTITLE9=Hot Night In Kaplan
TTITLE10=No Money Blues
EXTD=
EXTT0=
EXTT1=
EXTT2=
EXTT3=
EXTT4=
EXTT5=
EXTT6=
EXTT7=
EXTT8=
EXTT9=
EXTT10=
PLAYORDER=
